<svg id="Artlist_Logo" data-name="Artlist Logo" xmlns="http://www.w3.org/2000/svg" width="68.844" height="17.875" viewBox="0 0 68.844 17.875">
  <defs>
    <style>
      .cls-1 {
        fill: #ffda2a;
        fill-rule: evenodd;
      }
    </style>
  </defs>
  <path id="Path" class="cls-1" d="M53.907,30.989a6.5,6.5,0,0,0-2.61.553,3.3,3.3,0,0,0-1.638,1.606v7.574H46.451v-12.5h2.943v2.672a5.4,5.4,0,0,1,.791-1.163,6.051,6.051,0,0,1,.986-0.9,4.451,4.451,0,0,1,1.069-.582,3.4,3.4,0,0,1,1.041-.207h0.389a1.483,1.483,0,0,1,.25.028Z" transform="translate(-29.125 -23.094)"/>
  <path id="Path-2" data-name="Path" class="cls-1" d="M63.805,40.072a12.8,12.8,0,0,1-1.583.568,6.707,6.707,0,0,1-1.957.29A4.868,4.868,0,0,1,59,40.764a2.717,2.717,0,0,1-1.027-.54,2.686,2.686,0,0,1-.708-0.956A3.278,3.278,0,0,1,57,37.856V30.67H55.35V28.219H57V24.163H60.21v4.057h2.638V30.67H60.21v6.106a1.116,1.116,0,0,0,.347.941A1.251,1.251,0,0,0,61.4,38a3,3,0,0,0,.985-0.167c0.319-.111.569-0.208,0.764-0.29Z" transform="translate(-29.125 -23.094)"/>
  <path id="Path-3" data-name="Path" class="cls-1" d="M65.152,23.3h3.207v13.4a1.623,1.623,0,0,0,.333,1.08,1.249,1.249,0,0,0,.958.387,2.56,2.56,0,0,0,.639-0.1,3.667,3.667,0,0,0,.652-0.236l0.431,2.437a5.84,5.84,0,0,1-1.513.471,7.32,7.32,0,0,1-1.555.166,3.2,3.2,0,0,1-2.332-.8,3.061,3.061,0,0,1-.833-2.271Z" transform="translate(-29.125 -23.094)"/>
  <path id="Path-4" data-name="Path" class="cls-1" d="M73.051,40.723v-12.5h3.207v12.5H73.051Z" transform="translate(-29.125 -23.094)"/>
  <path id="Path-5" data-name="Path" class="cls-1" d="M76.467,24.91a1.6,1.6,0,0,1-.541,1.3,1.787,1.787,0,0,1-1.263.485,1.853,1.853,0,0,1-1.291-.485,1.714,1.714,0,0,1-.541-1.3,1.681,1.681,0,0,1,.541-1.329,1.926,1.926,0,0,1,2.555,0A1.661,1.661,0,0,1,76.467,24.91Z" transform="translate(-29.125 -23.094)"/>
  <path id="Path-6" data-name="Path" class="cls-1" d="M83.589,40.958a9.646,9.646,0,0,1-3.082-.5,7.753,7.753,0,0,1-2.582-1.426l1.194-2.008a10.662,10.662,0,0,0,2.235,1.232,5.845,5.845,0,0,0,2.166.416,2.814,2.814,0,0,0,1.513-.36,1.153,1.153,0,0,0,.555-1.025,1.041,1.041,0,0,0-.639-0.983,15.738,15.738,0,0,0-2.11-.721c-0.819-.221-1.513-0.429-2.082-0.637a5.259,5.259,0,0,1-1.388-.706,2.228,2.228,0,0,1-.764-0.914,2.874,2.874,0,0,1-.236-1.233,3.693,3.693,0,0,1,.375-1.717,3.8,3.8,0,0,1,1.041-1.3,4.9,4.9,0,0,1,1.569-.831,6.618,6.618,0,0,1,1.944-.29,8.541,8.541,0,0,1,2.638.4A6.3,6.3,0,0,1,88.2,29.674l-1.291,1.938a7.935,7.935,0,0,0-1.861-1.052,4.872,4.872,0,0,0-1.777-.333,2.608,2.608,0,0,0-1.36.333,1.179,1.179,0,0,0-.556,1.08,0.972,0.972,0,0,0,.139.554,1.234,1.234,0,0,0,.416.388,3.62,3.62,0,0,0,.749.318c0.306,0.1.694,0.208,1.166,0.318q1.291,0.333,2.207.665a6.209,6.209,0,0,1,1.513.761,2.732,2.732,0,0,1,.861,1,3,3,0,0,1,.278,1.343,3.487,3.487,0,0,1-1.361,2.894A5.868,5.868,0,0,1,83.589,40.958Z" transform="translate(-29.125 -23.094)"/>
  <path id="Path-7" data-name="Path" class="cls-1" d="M97.972,40.072a12.784,12.784,0,0,1-1.582.568,6.709,6.709,0,0,1-1.958.29,4.688,4.688,0,0,1-1.249-.166,2.64,2.64,0,0,1-1.736-1.5,3.282,3.282,0,0,1-.264-1.412V30.67H89.531V28.219h1.652V24.163H94.39v4.057h2.638V30.67H94.39v6.106a1.116,1.116,0,0,0,.347.941,1.251,1.251,0,0,0,.847.278,3,3,0,0,0,.986-0.167c0.319-.111.569-0.208,0.764-0.29Z" transform="translate(-29.125 -23.094)"/>
  <path id="Shape" class="cls-1" d="M38.524,24.91H35.317L29.111,38.258v2.479c2.5,0.111,5.109.165,7.8,0.165s5.3-.055,7.8-0.165V38.258ZM36.913,38.147c-1.444,0-2.9-.014-4.359-0.055L36.913,28.7l4.359,9.388C39.829,38.119,38.371,38.147,36.913,38.147Z" transform="translate(-29.125 -23.094)"/>
</svg>
